<svg xmlns="http://www.w3.org/2000/svg" enable-background="new 0 0 1500 1025.4" viewBox="0 0 1500 1025.4"><path fill="#ebf5fc" d="M177.3,925.5c0,0-214-154.1-119.2-273.6s154.1-136.4,67-273.6c-87.1-137.5,54.4-436.3,310-267.8
		c255.2,168.7,419.4,196.5,530,80.2c181.3-190.8,431.4-224,485.6-3.7c2.9,11.7,5.4,24.6,7.7,38.4
		c70.5,442.9-348.9,822.2-834.5,758.6L177.3,925.5z"/><path fill="#ffe47c" d="M162.1,876c1.7-6.6-2.6-13.5-7.7-18.3c-4.9-4.9-10.9-9.2-13.5-15.8c-4.3-10.3,1.4-24.1-5.7-32.7
						c-4.3-5.2-11.7-6.9-15.5-12.3c-2-2.9-2.6-6.3-3.4-9.7c-4-17.2-12.6-33.5-24.6-46.1c-0.9,15.5,2.6,30.9,9.7,44.7
						c2.9,5.4,6.3,10.9,7.4,16.9c1.4,10-4,20.1-1.4,29.8c2.9,11.2,15.2,18.6,15.8,30.1c0.6,9.7-8,18.3-7.4,27.8
						c0.3,4,2.3,8,4.3,11.5c7.4,12.6,18.6,20.9,35.2,20.9l20.3,0.6L162.1,876z"/><path fill="#ffe47c" d="M250.9,686.9c-0.6-4.6-1.4-9.5-2-14c0-0.3,0-0.6,0-0.9v-0.9l-0.9,0.3c-4.3,2.3-8,5.4-10.9,9.2
					c-2.9,3.7-5.2,8-6.9,12.6c-3.4,8.9-4.6,18-6.3,26.6c-1.7,8.9-4,17.5-8.3,24.6c-2.3,3.7-4.9,6.9-7.4,10.6
					c-2.3,3.4-4.6,7.4-5.2,11.7c-1.1,8.6,3.4,16.3,2.6,23.8c-0.3,3.7-2,7.4-3.7,10.6c-1.7,3.2-4,6.3-6,9.5c-2,3.2-4,6-5.4,9.5
					c-1.4,3.2-2.3,6.9-2.6,10.3c-0.6,6.9,0.6,13.5,0,19.5c-0.3,6.3-2.6,11.7-5.2,16.9c-2.6,5.2-5.2,9.5-7.4,14
					c-1.1,2.3-2.3,4.3-3.2,6.6c-0.9,2.3-1.4,4.3-1.7,6.6c-0.6,4.3-0.6,8.3-0.3,11.7c0.9,6.9,3.4,12,5.7,14.9
					c0.6,0.9,1.1,1.4,1.7,1.7c0.6,0.6,0.9,0.9,1.4,1.1c0.9,0.6,1.1,0.9,1.1,0.9s-1.7-1.1-4-4c-2.3-2.9-4.9-7.7-5.4-14.9
					c-0.3-3.4-0.6-7.4,0.3-11.5c0.6-2,0.9-4.3,1.7-6.3c0.9-2,2-4.3,3.2-6.3c2.3-4.3,5.2-8.9,7.7-14s4.9-10.9,5.2-17.2
					c0.6-6.3-0.3-12.9,0-19.5c0.3-3.4,1.1-6.6,2.6-10c1.4-3.2,3.4-6.3,5.4-9.2c2-3.2,4.3-6,6.3-9.5c2-3.4,3.4-6.9,4-11.2
					c0.9-8-3.7-15.8-2.6-23.8c0.6-4,2.6-7.7,4.9-11.2c2.3-3.4,5.2-6.9,7.4-10.6c4.6-7.4,6.9-16.3,8.6-25.2c1.7-8.9,2.9-18,6.3-26.6
					c1.7-4.3,3.7-8.6,6.6-12c2.6-3.4,6-6.3,9.7-8.3c0.6,4.6,1.4,9.5,2,14c0.6,4.6,0.9,9.5,0.6,14c0,2.3-0.3,4.6-0.6,6.9
					c-0.6,2.3-1.4,4.3-2.3,6.3c-1.7,4.3-3.7,8.3-4.9,12.9c-1.4,4.3-1.7,8.9-2.3,13.2c-0.6,4.3-0.9,8.9-1.4,13.2
					c-0.9,8.6-1.7,17.2-5.2,24.6l-5.7,10.9c-1.7,3.7-2.6,7.7-2.9,11.7c-0.6,8,0.6,15.5-1.4,22.6c-2,6.9-6.6,12.9-8.9,19.5
					c-2.3,6.6-1.4,13.5-0.6,19.8c0.9,6,2,12,0.6,17.5c-1.1,5.4-5.2,9.5-7.4,13.8c-1.1,2.3-2.3,4.6-2.6,6.9c-0.3,2.3-0.3,4.6-0.6,6.6
					c0,2-0.3,4.3-0.9,6c-0.6,1.7-2,3.2-3.2,4.3c-2.6,2.3-5.4,3.4-8,4.6c-2.6,0.9-4.9,1.4-6.6,1.7c-1.7,0.3-3.2,0.3-4.3,0.3
					c-0.9,0-1.4,0-1.4,0s2,0.6,5.7,0c1.7-0.3,4-0.9,6.6-1.7c2.6-0.9,5.4-2.3,8.3-4.6c1.4-1.1,2.6-2.6,3.4-4.6c0.6-2,0.9-4,0.9-6
					s0-4.3,0.6-6.6c0.3-2.3,1.1-4.6,2.6-6.6c2.3-4.3,6.3-8.3,7.7-14s0.3-11.7-0.6-18c-0.9-6-2-12.9,0.6-19.2
					c2.3-6.3,6.6-12,8.9-19.5c2.3-7.2,1.1-15.2,1.7-22.9c0.3-4,0.9-7.7,2.6-11.5c1.7-3.7,4-7.2,5.7-10.9c3.7-7.7,4.3-16.3,5.2-24.9
					c0.6-4.3,0.9-8.6,1.4-13.2c0.6-4.3,0.9-8.9,2.3-13.2c1.1-4.3,3.2-8.3,4.9-12.6c0.9-2,1.7-4.3,2.3-6.6c0.3-2.3,0.6-4.6,0.6-7.2
					C251.8,696.3,251.5,691.5,250.9,686.9z"/><path fill="#ffe47c" d="M244.6,683.2c0,0,0,0.3-0.3,0.6c0,0.6-0.3,1.1-0.6,1.7c-0.3,1.7-0.9,4-1.7,7.2
									c-0.9,3.2-2.6,6.6-4.3,10.6c-1.7,4.3-3.4,9.2-4.9,14.6c-1.4,5.4-2.9,11.5-4.3,18c-1.4,6.6-2.9,13.5-6.6,20.1
									c-1.7,3.4-3.4,6.6-5.2,10.3c-1.4,3.7-2.3,7.7-2.9,11.7c-0.9,8-2.6,16.3-4.3,24.6c-4,16.6-8,32.7-11.5,47.3
									c-3.7,14.6-6.9,27.5-9.7,38.7c-2.6,10.9-4.9,19.8-6.3,26.1c-0.6,2.9-1.1,5.4-1.7,7.2c-0.3,0.9-0.3,1.4-0.3,1.7s0,0.6,0,0.6
									s0-0.3,0.3-0.6c0-0.6,0.3-1.1,0.6-1.7c0.6-1.7,1.1-4,2-7.2c1.7-6.3,4-15.2,6.9-25.8c2.9-10.9,6.3-24.1,10-38.4
									c3.7-14.6,7.4-30.4,11.7-47.3c2-8.3,3.4-16.9,4.3-24.9c0.6-4,1.4-8,2.9-11.5c1.4-3.7,3.4-6.9,4.9-10.3
									c3.7-6.6,5.2-13.8,6.6-20.3c1.4-6.6,2.9-12.6,4.3-18s3.2-10.3,4.6-14.6c1.4-4.3,3.4-7.7,4-10.9c0.6-3.2,1.1-5.4,1.4-7.2
									c0-0.9,0.3-1.4,0.3-2C244.6,683.2,244.6,683.2,244.6,683.2z"/><path fill="#3db664" d="M183.6,924.1c13.5-8,17.2-32.1,11.7-46.4c-5.4-14.6-15.2-27.8-16.9-43.3c-1.1-11.7,2.9-24.1,0-35.8
								c-3.7-15.8-18.9-27.8-18.9-43.8c0-9.2,5.2-17.5,4.9-26.6c-0.6-11.2-8.9-19.8-14.3-29.5c-8-14.9-8.6-32.7-11.5-49.3
								s-9.2-34.7-24.1-43c-2.3,14.3-6,24.1-4.9,43.3c0.3,6.9,8.6,20.1,9.5,35.2c0.6,9.2,1.1,18,1.7,27.2c0.6,8.9,1.1,17.8,4.3,26.1
								c2.3,6.3,6.3,12,8,18.6c3.4,12.3-1.1,25.5,1.7,38.1c2.3,10.6,9.7,19.8,11.2,30.4c2,14.9-7.7,30.7-2.6,45
								c2.6,7.2,8.3,12.9,10,20.1c1.1,5.7,0,11.7,1.1,17.5c2,9.2,19.5,16.3,28.9,15.8"/><path fill="#fff" d="M118.6,620.1c0,0,0,0.3,0,0.9c0,0.6,0.3,1.4,0.3,2.3c0.3,2,0.6,5.2,1.4,8.9c0.9,4,2.9,8.3,4.3,13.8
									c1.7,5.4,3.4,11.5,4.9,18.3c1.4,6.9,2.9,14.3,4,22.6c1.4,8,2.9,17.2,6.9,25.5c2,4.3,4,8.6,5.4,13.2
									c1.7,4.6,2.3,9.5,2.9,14.3c0.6,10,2,20.6,4,31.2c4,21.2,8,41.3,11.5,59.3c3.7,18.3,7.2,34.7,10,48.4
									c2.9,13.8,5.2,24.9,6.9,32.7c0.9,3.7,1.4,6.9,2,8.9c0.3,0.9,0.3,1.7,0.6,2.3c0,0.6,0.3,0.9,0.3,0.9s0-0.3,0-0.9
									c0-0.6-0.3-1.4-0.3-2.3c-0.3-2-0.9-5.2-1.7-8.9c-1.4-7.7-3.7-18.9-6.3-32.7c-2.9-13.8-6-30.4-9.7-48.4
									c-3.4-18.3-7.4-38.4-11.5-59.3c-2-10.6-3.2-20.9-4-30.9c-0.6-5.2-1.1-10-2.9-14.6s-3.7-8.9-5.7-13.2
									c-4-8.3-5.4-17.2-6.9-25.2c-1.4-8-2.6-15.8-4.3-22.6c-1.4-6.9-3.4-12.9-5.2-18.3c-1.7-5.4-3.7-9.7-4.6-13.5
									s-1.1-6.9-1.7-8.9c-0.3-0.9-0.3-1.7-0.6-2.3C118.6,620.4,118.6,620.1,118.6,620.1z"/><path fill="#c1def0" d="M118.3,75.3v266.1c0,0,0,0.3,0.3,0.3h178.8c0,0,0.3,0,0.3-0.3V75.3c0,0,0-0.3-0.3-0.3L118.3,75.3
							C118.3,75,118.3,75,118.3,75.3z"/><path fill="#658fc9" d="M299.1,343.4H116.3c0,0-0.3,0-0.3-0.3V73c0,0,0-0.3,0.3-0.3h182.8c0,0,0.3,0,0.3,0.3L299.1,343.4
								C299.3,343.4,299.3,343.4,299.1,343.4z M120.6,339.4H295c0,0,0.3,0,0.3-0.3V77.3c0,0,0-0.3-0.3-0.3H120.6c0,0-0.3,0-0.3,0.3
								L120.6,339.4C120.3,339.1,120.3,339.4,120.6,339.4z"/><path fill="#658fc9" d="M136.3,91.6v232.9c0,0,0,0.3,0.3,0.3h142.9c0,0,0.3,0,0.3-0.3V91.6c0,0,0-0.3-0.3-0.3L136.3,91.6
							C136.3,91.3,136.3,91.6,136.3,91.6z"/><path fill="#fff" d="M247.8,251.8h-80.2l0,0v-94l0,0h80.2l0,0V251.8C248.1,251.8,247.8,251.8,247.8,251.8z"/><g><path fill="#9bc6ea" d="M1391.4,740.5H700.7c-12.6,0-22.9-10.3-22.9-22.9V89.6c0-12.6,10.3-22.9,22.9-22.9h690.7
					c12.6,0,22.9,10.3,22.9,22.9v628.2C1414.3,730.4,1404.2,740.5,1391.4,740.5z"/><path fill="#658fc9" d="M1391.4,740.5c0,0,2.6,0.3,7.2-1.1c2.3-0.9,4.9-2,7.7-4.3c2.6-2.3,5.2-5.4,6.9-10
						c1.7-4.3,1.1-9.7,1.1-15.2c0-5.7,0-12,0-18.6c0-13.5,0-29.2,0-46.7c0-70.5-0.3-172.2-0.3-297.9c0-63,0-131.8,0-205.7
						c0-9.2,0-18.6,0-28.1c0-4.6,0-9.5,0-14v-7.2c0-2.3,0-4.6-0.6-6.9c-1.1-4.6-3.7-8.6-7.2-11.7c-3.4-2.9-8-4.9-12.9-5.2
						c-9.5-0.3-19.5,0-29.2,0c-39.5,0-79.9,0-121.5,0c-166.4,0-349.2,0-541.4,0c-5.7,0-11.5,2.3-15.5,6.3c-4,4-6.6,9.7-6.6,15.5
						c0,12,0,23.8,0,35.8c0,23.8,0,47.3,0,70.8c0,46.7,0,92.8,0,138.1c0,90.5,0,177.9,0,261c0,41.5,0,82.2,0,121.5
						c-0.3,4.9,1.1,9.5,3.7,13.5c2.6,3.7,6.6,6.9,10.9,8.6c4.3,1.7,9.2,1.1,14,1.1c4.9,0,9.7,0,14.3,0c19.2,0,37.8,0,56.4,0
						c73.9,0,142.9,0,206,0c125.8,0,227.7,0.3,297.9,0.3c35.2,0,62.4,0,81.1,0.3c9.2,0,16.3,0,21.2,0
						C1389.1,740.5,1391.4,740.5,1391.4,740.5s-2.3,0-7.2,0s-11.7,0-21.2,0c-18.6,0-45.8,0-81.1,0.3c-70.5,0-172.2,0.3-297.9,0.3
						c-63,0-131.8,0-206,0c-18.6,0-37.2,0-56.4,0c-4.9,0-9.5,0-14.3,0h-7.2c-2.6,0-4.9-0.6-7.4-1.4c-4.9-1.7-8.9-4.9-11.7-9.2
						s-4.3-9.5-4-14.3c0-39.5,0-79.9,0-121.5c0-83.1,0-170.4,0-261c0-45.3,0-91.4,0-138.1c0-23.5,0-47,0-70.8c0-11.7,0-23.8,0-35.8
						c0-6.3,2.6-12.3,6.9-16.9c4.3-4.3,10.6-6.9,16.9-6.9c191.9,0,375,0,541.4,0c41.5,0,82.2,0,121.5,0c9.7,0,19.5,0,29.5,0
						c5.2,0.3,9.7,2.3,13.8,5.4c3.7,3.2,6.6,7.7,7.7,12.3c0.6,2.3,0.9,4.9,0.6,7.2v7.2c0,4.9,0,9.5,0,14c0,9.5,0,18.6,0,28.1
						c0,73.9,0,142.9,0,205.7c0,125.8-0.3,227.7-0.3,297.9c0,17.5,0,33.2,0,46.7c0,6.9,0,12.9,0,18.6s0.3,10.9-1.4,15.5
						c-1.4,4.3-4.3,7.7-6.9,10c-2.6,2.3-5.4,3.4-7.7,4.3c-2.3,0.6-4,0.9-5.2,0.9C1392.2,740.5,1391.4,740.5,1391.4,740.5z"/><path fill="#3db664" d="M861.4,497.5c-43.8,0-79.6,35.5-79.6,79.6c0,44.1,35.5,79.6,79.6,79.6c43.8,0,79.6-35.5,79.6-79.6
							C941,533.1,905.2,497.5,861.4,497.5z M861.4,621.3c-24.6,0-44.4-19.8-44.4-44.4s19.8-44.4,44.4-44.4s44.4,19.8,44.4,44.4
							S885.7,621.3,861.4,621.3z"/><path fill="#ffe47c" d="M861.4,656.5c43.5,0,78.8-34.9,79.4-78.2h-35.2c-0.9,23.8-20.3,43-44.4,43s-43.5-19.2-44.4-43h-35.2
							C782.6,621.6,817.8,656.5,861.4,656.5z"/><path fill="#ffe47c" d="M861.4,497.5c-0.6,0-0.9,0-1.4,0v35.2c0.6,0,0.9,0,1.4,0c24.6,0,44.4,19.8,44.4,44.4c0,0.6,0,0.9,0,1.4
							H941c0-0.6,0-0.9,0-1.4C940.7,533.1,905.2,497.5,861.4,497.5z"/><path fill="#e1e1e0" d="M941,578.9h-36.1v-0.6c0-0.3,0-0.3,0-0.6c0-0.3,0-0.6,0-0.9c0-24.3-19.8-44.1-44.1-44.1
							c-0.3,0-0.6,0-0.9,0c-0.3,0-0.3,0-0.6,0h-0.6v-36.1h0.9c0.3,0,0.6,0,0.9,0c44.1,0,79.9,35.8,79.9,79.9c0,0.3,0,0.6,0,0.9
							c0,0.3,0,0.3,0,0.6L941,578.9z M906.1,578h34.1c0,0,0,0,0-0.3c0-0.3,0-0.6,0-0.9c0-43.5-35.5-79.1-79.1-79.1
							c-0.3,0-0.6,0-0.9,0l0,0v34.1l0,0c0.3,0,0.6,0,0.9,0c24.6,0,45,20.1,45,45C906.1,577.2,906.1,577.5,906.1,578
							C906.1,577.7,906.1,577.7,906.1,578z"/><path fill="#3db664" d="M905.5,578.3c-0.3,13.2-6.6,24.9-16,32.7l21.8,27.5c17.5-14.3,28.9-35.8,29.2-60.2H905.5z"/><path fill="#3db664" d="M978.6,536.8c0,4-3.2,7.2-7.2,7.2s-7.2-3.2-7.2-7.2s3.2-7.2,7.2-7.2C975.4,529.9,978.6,533.1,978.6,536.8z
						"/><path fill="#3db664" d="M978.6,568.9c0,4-3.2,7.2-7.2,7.2s-7.2-3.2-7.2-7.2c0-4,3.2-7.2,7.2-7.2
						C975.4,561.7,978.6,564.9,978.6,568.9z"/><path fill="#3db664" d="M978.6,600.4c0,4-3.2,7.2-7.2,7.2s-7.2-3.2-7.2-7.2s3.2-7.2,7.2-7.2C975.4,593.2,978.6,596.4,978.6,600.4z
						"/><path fill="#3db664" d="M978.6,631.3c0,4-3.2,7.2-7.2,7.2s-7.2-3.2-7.2-7.2s3.2-7.2,7.2-7.2C975.4,624.2,978.6,627.3,978.6,631.3z
						"/><path fill="#3db664" d="M1033.8,540.8h-34.7c-1.7,0-2.9-1.4-2.9-2.9v-1.1c0-1.7,1.4-2.9,2.9-2.9h34.7c1.7,0,2.9,1.4,2.9,2.9v1.1
						C1036.7,539.4,1035.6,540.8,1033.8,540.8z"/><path fill="#3db664" d="M1033.8,572h-34.7c-1.7,0-2.9-1.4-2.9-2.9V568c0-1.7,1.4-2.9,2.9-2.9h34.7c1.7,0,2.9,1.4,2.9,2.9v1.1
						C1036.7,570.9,1035.6,572,1033.8,572z"/><path fill="#3db664" d="M1033.8,603.5h-34.7c-1.7,0-2.9-1.4-2.9-2.9v-1.1c0-1.7,1.4-2.9,2.9-2.9h34.7c1.7,0,2.9,1.4,2.9,2.9v1.1
						C1036.7,602.1,1035.6,603.5,1033.8,603.5z"/><path fill="#3db664" d="M1033.8,635h-34.7c-1.7,0-2.9-1.4-2.9-2.9V631c0-1.7,1.4-2.9,2.9-2.9h34.7c1.7,0,2.9,1.4,2.9,2.9v1.1
						C1036.7,633.6,1035.6,635,1033.8,635z"/><path fill="#fff" d="M1339.5,422.2H764.6V176.1h574.9V422.2z M766,421.1h572.4V177.3H766V421.1z"/><rect width="573.8" height="1.1" x="765.1" y="380.1" fill="#fff"/><rect width="573.8" height="1.1" x="765.1" y="339.4" fill="#fff"/><rect width="573.8" height="1.1" x="765.1" y="298.4" fill="#fff"/><rect width="573.8" height="1.1" x="765.1" y="257.8" fill="#fff"/><rect width="573.8" height="1.1" x="765.1" y="216.8" fill="#fff"/><rect width="18.9" height="165.6" x="819.6" y="255.2" fill="#3db664"/><rect width="23.5" height="205.7" x="849.6" y="215.1" fill="#ffe47c"/><rect width="18.9" height="47" x="951.9" y="373.8" fill="#3db664"/><rect width="18.9" height="143.8" x="981.7" y="277" fill="#ffe47c"/><rect width="18.9" height="236.3" x="1075.4" y="184.4" fill="#3db664"/><rect width="18.9" height="56.4" x="1109.8" y="364.3" fill="#ffe47c"/><rect width="18.9" height="212.3" x="1198.6" y="208.2" fill="#3db664"/><rect width="18.9" height="122" x="1228.6" y="298.7" fill="#ffe47c"/><rect width="18.9" height="16.6" x="1291.1" y="404.2" fill="#f3735e"/><g><path fill="#4854a3" d="M861.7,448.8h-38.4c-1.7,0-2.9-1.4-2.9-2.9v-2c0-1.7,1.4-2.9,2.9-2.9h38.4c1.7,0,2.9,1.4,2.9,2.9v2
					C864.5,447.7,863.1,448.8,861.7,448.8z"/></g><g><path fill="#4854a3" d="M990.3,448.8h-38.4c-1.7,0-2.9-1.4-2.9-2.9v-2c0-1.7,1.4-2.9,2.9-2.9h38.4c1.7,0,2.9,1.4,2.9,2.9v2
					C993.2,447.7,992,448.8,990.3,448.8z"/></g><g><path fill="#4854a3" d="M1104,448.8h-38.4c-1.7,0-2.9-1.4-2.9-2.9v-2c0-1.7,1.4-2.9,2.9-2.9h38.4c1.7,0,2.9,1.4,2.9,2.9v2
					C1106.9,447.7,1105.7,448.8,1104,448.8z"/></g><g><path fill="#4854a3" d="M1220.9,448.8h-38.4c-1.7,0-2.9-1.4-2.9-2.9v-2c0-1.7,1.4-2.9,2.9-2.9h38.4c1.7,0,2.9,1.4,2.9,2.9v2
					C1224.1,447.7,1222.6,448.8,1220.9,448.8z"/></g><g><path fill="#4854a3" d="M1320.3,448.8h-38.4c-1.7,0-2.9-1.4-2.9-2.9v-2c0-1.7,1.4-2.9,2.9-2.9h38.4c1.7,0,2.9,1.4,2.9,2.9v2
					C1323.2,447.7,1321.7,448.8,1320.3,448.8z"/></g><g><rect width="79.6" height="16" x="1130.7" y="562.6" fill="#058041"/><path fill="#3db664" d="M1205.4,562.6c-0.3,0-0.3,3.4-0.3,7.7s0.3,7.7,0.3,7.7c0.3,0,0.3-3.4,0.3-7.7
										C1205.7,566,1205.4,562.6,1205.4,562.6z"/><path fill="#3db664" d="M1198,562.6c-0.3,0-0.3,3.4-0.3,7.7s0.3,7.7,0.3,7.7s0.3-3.4,0.3-7.7
										C1198.3,566,1198.3,562.6,1198,562.6z"/><path fill="#3db664" d="M1190.5,562.6c-0.3,0-0.3,3.4-0.3,7.7s0.3,7.7,0.3,7.7c0.3,0,0.3-3.4,0.3-7.7
										C1191.1,566,1190.8,562.6,1190.5,562.6z"/><path fill="#3db664" d="M1183.4,562.6c-0.3,0-0.3,3.4-0.3,7.7s0.3,7.7,0.3,7.7c0.3,0,0.3-3.4,0.3-7.7
										C1183.7,566,1183.7,562.6,1183.4,562.6z"/><path fill="#3db664" d="M1176.2,562.6c-0.3,0-0.3,3.4-0.3,7.7s0.3,7.7,0.3,7.7c0.3,0,0.3-3.4,0.3-7.7
										C1176.5,566,1176.2,562.6,1176.2,562.6z"/><path fill="#3db664" d="M1169.1,562.6c-0.3,0-0.3,3.4-0.3,7.7s0.3,7.7,0.3,7.7s0.3-3.4,0.3-7.7
										C1169.3,566,1169.1,562.6,1169.1,562.6z"/><path fill="#3db664" d="M1161.6,562.6c-0.3,0-0.3,3.4-0.3,7.7s0.3,7.7,0.3,7.7c0.3,0,0.3-3.4,0.3-7.7
										C1161.9,566,1161.9,562.6,1161.6,562.6z"/><path fill="#3db664" d="M1154.4,562.6c-0.3,0-0.3,3.4-0.3,7.7s0.3,7.7,0.3,7.7c0.3,0,0.3-3.4,0.3-7.7
										C1154.7,566,1154.7,562.6,1154.4,562.6z"/><path fill="#3db664" d="M1147.3,562.6c-0.3,0-0.3,3.4-0.3,7.7s0.3,7.7,0.3,7.7c0.3,0,0.3-3.4,0.3-7.7
										C1147.6,566,1147.3,562.6,1147.3,562.6z"/><path fill="#3db664" d="M1139.8,562.6c-0.3,0-0.3,3.4-0.3,7.7s0.3,7.7,0.3,7.7c0.3,0,0.3-3.4,0.3-7.7
										C1140.4,566,1140.1,562.6,1139.8,562.6z"/><path fill="#3db664" d="M1132.7,562.6c-0.3,0-0.3,3.4-0.3,7.7s0.3,7.7,0.3,7.7c0.3,0,0.3-3.4,0.3-7.7
										C1133,566,1133,562.6,1132.7,562.6z"/><rect width="79.6" height="16" x="1128.9" y="578.3" fill="#058041"/><path fill="#3db664" d="M1203.4,578.3c-0.3,0-0.3,3.4-0.3,7.7s0.3,7.7,0.3,7.7c0.3,0,0.3-3.4,0.3-7.7
										C1204,581.8,1203.7,578.3,1203.4,578.3z"/><path fill="#3db664" d="M1196.3,578.3c-0.3,0-0.3,3.4-0.3,7.7s0.3,7.7,0.3,7.7c0.3,0,0.3-3.4,0.3-7.7
										S1196.3,578.3,1196.3,578.3z"/><path fill="#3db664" d="M1188.8,578.3c-0.3,0-0.3,3.4-0.3,7.7s0.3,7.7,0.3,7.7c0.3,0,0.3-3.4,0.3-7.7
										S1189.1,578.3,1188.8,578.3z"/><path fill="#3db664" d="M1181.7,578.3c-0.3,0-0.3,3.4-0.3,7.7s0.3,7.7,0.3,7.7s0.3-3.4,0.3-7.7
										C1181.9,581.8,1181.9,578.3,1181.7,578.3z"/><path fill="#3db664" d="M1174.5,578.3c-0.3,0-0.3,3.4-0.3,7.7s0.3,7.7,0.3,7.7c0.3,0,0.3-3.4,0.3-7.7
										S1174.5,578.3,1174.5,578.3z"/><path fill="#3db664" d="M1167,578.3c-0.3,0-0.3,3.4-0.3,7.7s0.3,7.7,0.3,7.7c0.3,0,0.3-3.4,0.3-7.7S1167.3,578.3,1167,578.3z"/><path fill="#3db664" d="M1159.9,578.3c-0.3,0-0.3,3.4-0.3,7.7s0.3,7.7,0.3,7.7c0.3,0,0.3-3.4,0.3-7.7
										S1160.2,578.3,1159.9,578.3z"/><path fill="#3db664" d="M1152.7,578.3c-0.3,0-0.3,3.4-0.3,7.7s0.3,7.7,0.3,7.7c0.3,0,0.3-3.4,0.3-7.7
										S1152.7,578.3,1152.7,578.3z"/><path fill="#3db664" d="M1145.3,578.3c-0.3,0-0.3,3.4-0.3,7.7s0.3,7.7,0.3,7.7c0.3,0,0.3-3.4,0.3-7.7
										C1145.8,581.8,1145.6,578.3,1145.3,578.3z"/><path fill="#3db664" d="M1138.1,578.3c-0.3,0-0.3,3.4-0.3,7.7s0.3,7.7,0.3,7.7c0.3,0,0.3-3.4,0.3-7.7
										S1138.4,578.3,1138.1,578.3z"/><path fill="#3db664" d="M1131,578.3c-0.3,0-0.3,3.4-0.3,7.7s0.3,7.7,0.3,7.7c0.3,0,0.3-3.4,0.3-7.7S1131,578.3,1131,578.3z"/><path fill="#3db664" d="M1129.2,578.3c0,0.3,17.8,0.3,39.8,0.3c22.1,0,39.8-0.3,39.8-0.3c0-0.3-17.8-0.3-39.8-0.3
										C1147,577.7,1129.2,578,1129.2,578.3z"/><g><rect width="79.6" height="16" x="1136.7" y="593.5" fill="#058041"/><path fill="#3db664" d="M1211.2,593.8c-0.3,0-0.3,3.4-0.3,7.7s0.3,7.7,0.3,7.7c0.3,0,0.3-3.4,0.3-7.7
										C1211.4,597.5,1211.2,593.8,1211.2,593.8z"/><path fill="#3db664" d="M1203.7,593.8c-0.3,0-0.3,3.4-0.3,7.7s0.3,7.7,0.3,7.7c0.3,0,0.3-3.4,0.3-7.7
										C1204,597.5,1204,593.8,1203.7,593.8z"/><path fill="#3db664" d="M1196.6,593.8c-0.3,0-0.3,3.4-0.3,7.7s0.3,7.7,0.3,7.7c0.3,0,0.3-3.4,0.3-7.7
										C1196.8,597.5,1196.6,593.8,1196.6,593.8z"/><path fill="#3db664" d="M1189.1,593.8c-0.3,0-0.3,3.4-0.3,7.7s0.3,7.7,0.3,7.7s0.3-3.4,0.3-7.7
										C1189.4,597.5,1189.4,593.8,1189.1,593.8z"/><path fill="#3db664" d="M1181.9,593.8c-0.3,0-0.3,3.4-0.3,7.7s0.3,7.7,0.3,7.7s0.3-3.4,0.3-7.7
										C1182.2,597.5,1182.2,593.8,1181.9,593.8z"/><path fill="#3db664" d="M1174.8,593.8c-0.3,0-0.3,3.4-0.3,7.7s0.3,7.7,0.3,7.7c0.3,0,0.3-3.4,0.3-7.7
										C1175.1,597.5,1174.8,593.8,1174.8,593.8z"/><path fill="#3db664" d="M1167.3,593.8c-0.3,0-0.3,3.4-0.3,7.7s0.3,7.7,0.3,7.7c0.3,0,0.3-3.4,0.3-7.7
										C1167.9,597.5,1167.6,593.8,1167.3,593.8z"/><path fill="#3db664" d="M1160.2,593.8c-0.3,0-0.3,3.4-0.3,7.7s0.3,7.7,0.3,7.7s0.3-3.4,0.3-7.7
										C1160.5,597.5,1160.5,593.8,1160.2,593.8z"/><path fill="#3db664" d="M1153,593.8c-0.3,0-0.3,3.4-0.3,7.7s0.3,7.7,0.3,7.7c0.3,0,0.3-3.4,0.3-7.7
										C1153.3,597.5,1153,593.8,1153,593.8z"/><path fill="#3db664" d="M1145.6,593.8c-0.3,0-0.3,3.4-0.3,7.7s0.3,7.7,0.3,7.7c0.3,0,0.3-3.4,0.3-7.7
										C1146.1,597.5,1145.8,593.8,1145.6,593.8z"/><path fill="#3db664" d="M1138.4,593.8c-0.3,0-0.3,3.4-0.3,7.7s0.3,7.7,0.3,7.7c0.3,0,0.3-3.4,0.3-7.7
										C1138.7,597.5,1138.7,593.8,1138.4,593.8z"/><path fill="#3db664" d="M1136.7,593.8c0,0.3,17.8,0.3,39.8,0.3c22.1,0,39.8-0.3,39.8-0.3c0-0.3-17.8-0.3-39.8-0.3
										C1154.4,593.2,1136.7,593.5,1136.7,593.8z"/></g><g><rect width="79.6" height="15.5" x="1127.5" y="609.5" fill="#058041"/><path fill="#3db664" d="M1201.7,609.8c-0.3,0-0.3,3.4-0.3,7.4s0.3,7.4,0.3,7.4s0.3-3.4,0.3-7.4
										C1202,613.3,1202,609.8,1201.7,609.8z"/><path fill="#3db664" d="M1194.3,609.8c-0.3,0-0.3,3.4-0.3,7.4s0.3,7.4,0.3,7.4c0.3,0,0.3-3.4,0.3-7.4
										C1194.8,613.3,1194.5,609.8,1194.3,609.8z"/><path fill="#3db664" d="M1187.1,609.8c-0.3,0-0.3,3.4-0.3,7.4s0.3,7.4,0.3,7.4c0.3,0,0.3-3.4,0.3-7.4
										C1187.4,613.3,1187.4,609.8,1187.1,609.8z"/><path fill="#3db664" d="M1179.9,609.8c-0.3,0-0.3,3.4-0.3,7.4s0.3,7.4,0.3,7.4c0.3,0,0.3-3.4,0.3-7.4
										C1180.2,613.3,1179.9,609.8,1179.9,609.8z"/><path fill="#3db664" d="M1172.5,609.8c-0.3,0-0.3,3.4-0.3,7.4s0.3,7.4,0.3,7.4c0.3,0,0.3-3.4,0.3-7.4
										C1173.1,613.3,1172.8,609.8,1172.5,609.8z"/><path fill="#3db664" d="M1165.3,609.8c-0.3,0-0.3,3.4-0.3,7.4s0.3,7.4,0.3,7.4c0.3,0,0.3-3.4,0.3-7.4
										C1165.6,613.3,1165.6,609.8,1165.3,609.8z"/><path fill="#3db664" d="M1158.2,609.8c-0.3,0-0.3,3.4-0.3,7.4s0.3,7.4,0.3,7.4s0.3-3.4,0.3-7.4
										C1158.5,613.3,1158.2,609.8,1158.2,609.8z"/><path fill="#3db664" d="M1151,609.8c-0.3,0-0.3,3.4-0.3,7.4s0.3,7.4,0.3,7.4c0.3,0,0.3-3.4,0.3-7.4
										C1151.3,613.3,1151,609.8,1151,609.8z"/><path fill="#3db664" d="M1143.6,609.8c-0.3,0-0.3,3.4-0.3,7.4s0.3,7.4,0.3,7.4c0.3,0,0.3-3.4,0.3-7.4
										C1143.8,613.3,1143.8,609.8,1143.6,609.8z"/><path fill="#3db664" d="M1136.4,609.8c-0.3,0-0.3,3.4-0.3,7.4s0.3,7.4,0.3,7.4c0.3,0,0.3-3.4,0.3-7.4
										C1136.7,613.3,1136.7,609.8,1136.4,609.8z"/><path fill="#3db664" d="M1129.2,609.8c-0.3,0-0.3,3.4-0.3,7.4s0.3,7.4,0.3,7.4s0.3-3.4,0.3-7.4
										C1129.5,613.3,1129.2,609.8,1129.2,609.8z"/><path fill="#3db664" d="M1127.2,609.5c0,0.3,17.8,0.3,39.8,0.3c22.1,0,39.8-0.3,39.8-0.3c0-0.3-17.8-0.3-39.8-0.3
										S1127.2,609.5,1127.2,609.5z"/></g><g><rect width="79.6" height="15.5" x="1132.4" y="625" fill="#058041"/><path fill="#3db664" d="M1206.9,625.3c-0.3,0-0.3,3.4-0.3,7.4s0.3,7.4,0.3,7.4c0.3,0,0.3-3.4,0.3-7.4
										S1207.2,625.3,1206.9,625.3z"/><path fill="#3db664" d="M1199.4,625.3c-0.3,0-0.3,3.4-0.3,7.4s0.3,7.4,0.3,7.4c0.3,0,0.3-3.4,0.3-7.4
										C1200,628.7,1199.7,625.3,1199.4,625.3z"/><ellipse cx="1192.3" cy="632.8" fill="#3db664" rx=".3" ry="7.4"/><path fill="#3db664" d="M1185.1,625.3c-0.3,0-0.3,3.4-0.3,7.4s0.3,7.4,0.3,7.4c0.3,0,0.3-3.4,0.3-7.4
										S1185.1,625.3,1185.1,625.3z"/><path fill="#3db664" d="M1177.6,625.3c-0.3,0-0.3,3.4-0.3,7.4s0.3,7.4,0.3,7.4c0.3,0,0.3-3.4,0.3-7.4
										S1177.9,625.3,1177.6,625.3z"/><path fill="#3db664" d="M1170.5,625.3c-0.3,0-0.3,3.4-0.3,7.4s0.3,7.4,0.3,7.4s0.3-3.4,0.3-7.4S1170.8,625.3,1170.5,625.3z"/><path fill="#3db664" d="M1163.3,625.3c-0.3,0-0.3,3.4-0.3,7.4s0.3,7.4,0.3,7.4c0.3,0,0.3-3.4,0.3-7.4
										S1163.3,625.3,1163.3,625.3z"/><path fill="#3db664" d="M1155.9,625.3c-0.3,0-0.3,3.4-0.3,7.4s0.3,7.4,0.3,7.4c0.3,0,0.3-3.4,0.3-7.4
										C1156.4,628.7,1156.2,625.3,1155.9,625.3z"/><path fill="#3db664" d="M1148.7,625.3c-0.3,0-0.3,3.4-0.3,7.4s0.3,7.4,0.3,7.4s0.3-3.4,0.3-7.4S1149,625.3,1148.7,625.3z"/><path fill="#3db664" d="M1141.6,625.3c-0.3,0-0.3,3.4-0.3,7.4s0.3,7.4,0.3,7.4s0.3-3.4,0.3-7.4
										C1141.8,628.7,1141.6,625.3,1141.6,625.3z"/><path fill="#3db664" d="M1134.1,625.3c-0.3,0-0.3,3.4-0.3,7.4s0.3,7.4,0.3,7.4c0.3,0,0.3-3.4,0.3-7.4
										C1134.7,628.7,1134.4,625.3,1134.1,625.3z"/><path fill="#3db664" d="M1132.4,625c0,0.3,17.8,0.3,39.8,0.3c22.1,0,39.8-0.3,39.8-0.3s-17.8-0.3-39.8-0.3
										C1150.1,624.7,1132.4,624.7,1132.4,625z"/></g><g><rect width="79.6" height="15.5" x="1127.8" y="640.2" fill="#058041"/><path fill="#3db664" d="M1202.3,640.5c-0.3,0-0.3,3.4-0.3,7.4s0.3,7.4,0.3,7.4c0.3,0,0.3-3.4,0.3-7.4
										S1202.6,640.5,1202.3,640.5z"/><path fill="#3db664" d="M1194.8,640.5c-0.3,0-0.3,3.4-0.3,7.4s0.3,7.4,0.3,7.4c0.3,0,0.3-3.4,0.3-7.4
										C1195.4,643.9,1195.1,640.5,1194.8,640.5z"/><path fill="#3db664" d="M1187.7,640.5c-0.3,0-0.3,3.4-0.3,7.4s0.3,7.4,0.3,7.4c0.3,0,0.3-3.4,0.3-7.4S1188,640.5,1187.7,640.5
										z"/><path fill="#3db664" d="M1180.5,640.5c-0.3,0-0.3,3.4-0.3,7.4s0.3,7.4,0.3,7.4s0.3-3.4,0.3-7.4S1180.5,640.5,1180.5,640.5z"/><path fill="#3db664" d="M1173.1,640.5c-0.3,0-0.3,3.4-0.3,7.4s0.3,7.4,0.3,7.4s0.3-3.4,0.3-7.4
										C1173.6,643.9,1173.3,640.5,1173.1,640.5z"/><path fill="#3db664" d="M1165.9,640.5c-0.3,0-0.3,3.4-0.3,7.4s0.3,7.4,0.3,7.4c0.3,0,0.3-3.4,0.3-7.4
										S1166.2,640.5,1165.9,640.5z"/><path fill="#3db664" d="M1158.7,640.5c-0.3,0-0.3,3.4-0.3,7.4s0.3,7.4,0.3,7.4c0.3,0,0.3-3.4,0.3-7.4
										C1159,643.9,1158.7,640.5,1158.7,640.5z"/><path fill="#3db664" d="M1151.6,640.5c-0.3,0-0.3,3.4-0.3,7.4s0.3,7.4,0.3,7.4c0.3,0,0.3-3.4,0.3-7.4
										C1151.9,643.9,1151.6,640.5,1151.6,640.5z"/><path fill="#3db664" d="M1144.1,640.5c-0.3,0-0.3,3.4-0.3,7.4s0.3,7.4,0.3,7.4c0.3,0,0.3-3.4,0.3-7.4
										S1144.4,640.5,1144.1,640.5z"/><path fill="#3db664" d="M1137,640.5c-0.3,0-0.3,3.4-0.3,7.4s0.3,7.4,0.3,7.4c0.3,0,0.3-3.4,0.3-7.4S1137.3,640.5,1137,640.5z"/><path fill="#3db664" d="M1129.8,640.5c-0.3,0-0.3,3.4-0.3,7.4s0.3,7.4,0.3,7.4c0.3,0,0.3-3.4,0.3-7.4
										S1129.8,640.5,1129.8,640.5z"/><path fill="#3db664" d="M1127.8,640.2c0,0.3,17.8,0.3,39.8,0.3c22.1,0,39.8-0.3,39.8-0.3c0-0.3-17.8-0.3-39.8-0.3
										C1145.6,639.9,1127.8,640.2,1127.8,640.2z"/></g><g><path fill="#263238" d="M1207.4,655.7L1207.4,655.7c0-0.6,0-0.9,0-1.1c0-0.9,0-1.7,0-2.9c0-2.6,0-6.3,0-11.2v-0.3h0.3
								c1.4,0,2.9,0,4.3,0l-0.3,0.3c0-4.6,0-9.7,0-15.5l0.3,0.3c-1.7,0-3.4,0-5.2,0h-0.3V625c0-4.9,0-10,0-15.2v-0.3h0.3
								c1.7,0,3.4,0,5.4,0c1.4,0,2.6,0,4,0l-0.3,0.3c0-5.7,0-11.2,0-16.3l0.3,0.3c-2.6,0-5.2,0-7.4,0h-0.3v-0.3c0-5.4,0-10.6,0-14.9
								v-0.3h0.3c0.6,0,1.4,0,2,0l-0.3,0.3c0-4.9,0-8.9,0-11.7c0-1.4,0-2.3,0-3.2c0-0.3,0-0.6,0-0.9s0-0.3,0-0.3s0,0,0,0.3
								s0,0.6,0,0.9c0,0.9,0,1.7,0,3.2c0,2.9,0,6.9,0.3,11.7v0.3h-0.3c-0.6,0-1.1,0-2,0l0.3-0.3c0,4.3,0,9.5,0,14.9l-0.3-0.3
								c2.3,0,4.9,0,7.4,0h0.3v0.3c0,5.2,0,10.6,0,16.3v0.3h-0.3c-1.4,0-2.6,0-4,0c-1.7,0-3.7,0-5.4,0l0.3-0.3c0,5.4,0,10.6,0,15.2
								l-0.3-0.3c1.7,0,3.4,0,5.2,0h0.3v0.3c0,5.7,0,10.9,0,15.5v0.3h-0.3c-1.4,0-2.9,0-4.3,0l0.3-0.3c0,4.9,0,8.6,0,11.2
								c0,1.1,0,2.3,0,2.9C1207.4,654.8,1207.4,655.1,1207.4,655.7L1207.4,655.7z"/></g></g><g><path fill="#4854a3" d="M1246.7,542.5h56.1c2.3,0,3.4-2.9,1.7-4.3l-28.1-28.6c-1.1-1.1-2.6-1.1-3.7,0l-28.1,28.6
					C1243.2,539.9,1244.4,542.5,1246.7,542.5z"/><rect width="35.8" height="116.6" x="1257.6" y="537.4" fill="#4854a3"/></g><g><path fill="#ffe47c" d="M1160.5,523c2.9,2.6,4.3,6,4.3,10c0,2.9-0.6,5.4-2,7.7c-1.4,2.3-3.4,4.3-6.6,5.7c-2.9,1.4-6.6,2.3-10.9,2.3
				c-3.2,0-6-0.3-8.9-1.1c-2.9-0.6-5.7-1.7-7.7-2.9l4.9-10.9c1.7,1.1,3.7,1.7,5.7,2.3c2,0.6,4,0.9,5.7,0.9c1.7,0,3.2-0.3,4-0.9
				c1.1-0.6,1.4-1.4,1.4-2.6c0-1.1-0.6-1.7-1.4-2.3s-2.6-0.9-5.2-0.9h-12.3l2-26.6h28.4V515h-16.6l-0.3,4.3h2.3
				C1153,519,1157.6,520.5,1160.5,523z"/><path fill="#ffe47c" d="M1176.8,546c-2.9-1.7-5.2-4.6-6.9-8c-1.7-3.4-2.6-7.4-2.6-12.3s0.9-8.9,2.6-12.3c1.7-3.4,4-6,6.9-8
				c2.9-1.7,6.3-2.9,10-2.9s7.2,0.9,10,2.9c2.9,1.7,5.2,4.6,6.9,8c1.7,3.4,2.6,7.4,2.6,12.3s-0.9,8.9-2.6,12.3c-1.7,3.4-4,6-6.9,8
				c-2.9,1.7-6.3,2.9-10,2.9C1183.1,548.5,1179.7,547.7,1176.8,546z M1191.7,525.6c0-7.4-1.7-11.2-4.9-11.2s-4.9,3.7-4.9,11.2
				c0,7.4,1.7,11.2,4.9,11.2S1191.7,533.1,1191.7,525.6z"/></g><g><path fill="#263238" d="M862.2,582.6h-3.4v4.3h-4.6v-4.3h-10.9v-3.2l9.5-13.2h4.9l-8.9,12.6h5.4v-4h4.3v4h3.4v3.7H862.2
				L862.2,582.6z"/><path fill="#263238" d="M876.9,575.7c1.4,1.1,2,2.9,2,4.6c0,1.1-0.3,2.3-0.9,3.4c-0.6,1.1-1.4,2-2.9,2.6c-1.1,0.6-2.9,0.9-4.6,0.9
				c-1.4,0-2.9-0.3-4.3-0.6c-1.4-0.3-2.6-0.9-3.4-1.7l1.7-3.7c0.9,0.6,1.7,1.1,2.6,1.4c0.9,0.3,2,0.6,3.2,0.6c1.1,0,2-0.3,2.9-0.9
				c0.6-0.6,1.1-1.1,1.1-2c0-0.9-0.3-1.4-1.1-2c-0.6-0.6-2-0.6-3.7-0.6h-5.2l1.1-11.7h12.3v4h-8.6l-0.3,4h1.7
				C873.4,573.7,875.4,574.3,876.9,575.7z"/></g><g><path fill="#ffe47c" d="M1212,512.7c-0.6-0.9-0.9-1.7-0.9-2.9c0-1.1,0.3-2,0.9-2.9c0.6-0.9,1.4-1.1,2.6-1.1s1.7,0.3,2.6,1.1
				c0.6,0.9,0.9,1.7,0.9,2.9c0,1.1-0.3,2-0.9,2.9c-0.6,0.9-1.4,1.1-2.6,1.1S1212.6,513.6,1212,512.7z M1215.7,511.9
				c0.3-0.6,0.6-1.1,0.6-1.7c0-0.9-0.3-1.4-0.6-1.7c-0.3-0.6-0.9-0.6-1.4-0.6c-0.6,0-0.9,0.3-1.1,0.6c-0.3,0.6-0.6,1.1-0.6,1.7
				c0,0.9,0.3,1.4,0.6,1.7c0.3,0.6,0.9,0.6,1.1,0.6C1215.2,512.4,1215.5,512.1,1215.7,511.9z M1223.2,506.1h2l-9.7,14.3h-2
				L1223.2,506.1z M1221.5,519.6c-0.6-0.9-0.9-1.7-0.9-2.9c0-1.1,0.3-2,0.9-2.9c0.6-0.9,1.4-1.1,2.6-1.1c1.1,0,1.7,0.3,2.6,1.1
				c0.6,0.9,0.9,1.7,0.9,2.9c0,1.1-0.3,2-0.9,2.9c-0.6,0.9-1.4,1.1-2.6,1.1C1222.9,520.7,1222,520.5,1221.5,519.6z M1225.2,518.7
				c0.3-0.6,0.6-1.1,0.6-1.7c0-0.9-0.3-1.4-0.6-1.7c-0.3-0.6-0.9-0.6-1.4-0.6c-0.6,0-0.9,0.3-1.4,0.6c-0.3,0.6-0.6,1.1-0.6,1.7
				c0,0.9,0.3,1.4,0.6,1.7c0.3,0.6,0.9,0.6,1.4,0.6C1224.3,519.3,1224.9,519,1225.2,518.7z"/></g><g><path fill="#fff" d="M743.4,114c0,5.2-4.3,9.5-9.5,9.5s-9.5-4.3-9.5-9.5c0-5.2,4.3-9.5,9.5-9.5S743.4,108.8,743.4,114z"/><path fill="#fff" d="M769.1,114c0,5.2-4.3,9.5-9.5,9.5s-9.5-4.3-9.5-9.5c0-5.2,4.3-9.5,9.5-9.5
					C765.1,104.5,769.1,108.8,769.1,114z"/><path fill="#fff" d="M795.2,114c0,5.2-4.3,9.5-9.5,9.5s-9.5-4.3-9.5-9.5c0-5.2,4.3-9.5,9.5-9.5S795.2,108.8,795.2,114z"/></g></g><g><path fill="#fff" d="M444.6,268.7l12.3-21.5c-4.6-14-5.7-29.5-2.3-45c10.3-44.4,54.7-71.9,98.8-61.9
																			c44.4,10.3,71.9,54.7,61.9,98.8C605,283.5,560.6,311,516.5,301c-18.6-4.3-34.1-14.6-45.3-28.1l0,0L444.6,268.7z"/><path fill="#658fc9" d="M444.6,268.7c0,0,0.6,0,1.7,0.3c1.1,0.3,2.9,0.6,4.9,0.9c4.6,0.9,11.2,2,19.8,3.4
																				c0.3,0,0.3,0,0.6-0.3v-0.3l0,0l-0.6,0.3c6.6,8.3,17.2,18,32.7,24.3c7.7,3.2,16.3,5.4,25.8,6
																				c9.5,0.6,19.8-0.3,29.8-3.2c10-3.2,20.3-8.3,29.2-15.5c8.9-7.4,16.6-16.9,22.1-28.1
																				c10.9-22.1,11.5-51.3-1.7-75.3c-6.6-12-15.8-22.6-26.9-29.8c-10.9-7.4-23.5-12-35.8-13.5
																				c-12.6-1.7-24.9-0.3-36.1,3.4c-11.2,3.7-20.9,9.5-29.2,16.3c-16.3,14-24.9,32.7-27.5,49
																				c-2.9,16.3,0,30.4,3.4,40.4v-0.3c-4,7.2-6.9,12.3-8.9,16.3c-0.9,1.7-1.7,3.2-2.3,4
																				C444.9,268.1,444.6,268.7,444.6,268.7s0.3-0.6,0.9-1.4c0.6-1.1,1.4-2.3,2.6-4c2.3-3.7,5.2-8.9,9.2-15.8v-0.3
																				c-3.2-9.7-5.7-23.8-2.9-39.8c2.6-16,11.2-34.1,27.2-47.8c8-6.9,17.8-12.6,28.6-16s22.9-4.9,35.2-3.2
																				c12,1.7,24.3,6,35.2,13.5c10.9,7.2,20.1,17.5,26.4,29.2c12.9,23.5,12.3,51.9,1.7,73.6
																				c-10.6,22.1-30.1,37-49.8,43c-10,3.2-20.1,4-29.2,3.4s-18-2.6-25.5-5.7c-15.2-6.3-25.8-15.8-32.4-23.8
																				c0-0.3-0.3-0.3-0.6,0c-0.3,0-0.3,0.3,0,0.6l0,0l0.3-0.6c-8.6-1.4-15.2-2.3-19.8-3.2c-2.3-0.3-4-0.6-5.2-0.9
																				C445.2,268.7,444.6,268.7,444.6,268.7z"/><path fill="#658fc9" d="M558,220.8c0,4.6,3.7,8.3,8.3,8.3c4.6,0,8.3-3.7,8.3-8.3c0-4.6-3.7-8.3-8.3-8.3
																C562,212.5,558,216.2,558,220.8z"/><path fill="#658fc9" d="M524.5,220.8c0,4.6,3.7,8.3,8.3,8.3c4.6,0,8.3-3.7,8.3-8.3c0-4.6-3.7-8.3-8.3-8.3
																C528.5,212.5,524.5,216.2,524.5,220.8z"/><path fill="#658fc9" d="M491.3,216.5c-2.3,4-0.9,9.2,3.2,11.5c4,2.3,9.2,0.9,11.5-3.2c2.3-4,0.9-9.2-3.2-11.5
																C498.7,211.4,493.6,212.5,491.3,216.5z"/></g><g><rect width="155" height="232.9" x="336.6" y="704.4" fill="#9bc6ea"/><rect width="59.3" height="232.9" x="277.3" y="704.7" fill="#658fc9"/><rect width="43.5" height="7.4" x="284.7" y="713.5" fill="#4854a3"/><rect width="43.5" height="7.4" x="284.7" y="729.3" fill="#4854a3"/><rect width="43.5" height="7.4" x="284.7" y="745.6" fill="#4854a3"/><rect width="43.5" height="7.4" x="284.7" y="761.4" fill="#4854a3"/><rect width="43.5" height="7.4" x="284.7" y="777.4" fill="#4854a3"/><rect width="43.5" height="7.4" x="284.7" y="793.2" fill="#4854a3"/><rect width="43.5" height="7.4" x="284.7" y="809.5" fill="#4854a3"/><rect width="43.5" height="7.4" x="284.7" y="825.3" fill="#4854a3"/><rect width="43.5" height="7.4" x="284.7" y="841" fill="#4854a3"/><rect width="43.5" height="7.4" x="284.7" y="857.3" fill="#4854a3"/><rect width="43.5" height="7.4" x="284.7" y="873.1" fill="#4854a3"/><rect width="43.5" height="7.4" x="284.7" y="889.1" fill="#4854a3"/><rect width="43.5" height="7.4" x="284.7" y="904.9" fill="#4854a3"/><rect width="43.5" height="7.4" x="284.7" y="921.2" fill="#4854a3"/><path fill="#271516" d="M516.8,937.6H438c0,0-4.3-14,5.2-31.5c0,0,6.3,5.2,25.2,1.7c0,0,8,6.6,13.5,9.5
				C487.5,919.8,519.1,925.8,516.8,937.6z"/><path fill="#27265f" d="M511.3,715.5c-5.2,30.4-28.6,132.9-38.7,193.7c-18.3,1.4-27.2-0.6-32.1-1.7c0.9-21.2,2.9-71.6,2.6-94
				c-0.3-37.5-2-86.8,14.3-114l55.6,4.3c-0.3,2.9-0.6,5.4-0.9,6.9C511.9,712.4,511.6,714.1,511.3,715.5z"/><path fill="#271516" d="M659.1,937.6h-78.8c0,0-4.3-14,5.2-31.5c0,0,6.3,5.2,25.2,1.7c0,0,8,6.6,13.5,9.5
				C629.9,919.8,661.4,925.8,659.1,937.6z"/><path fill="#38386e" d="M613.3,907.2c-15.2,3.7-26.1,3.4-31.2,2.9c-4.3-24.3-10.9-77.9-16.6-103.1c-9.2-39-18.3-92.8-12-112
				l54.7-13.8C608.2,682.9,612.7,847.3,613.3,907.2z"/><path fill="#38386e" d="M395.9,625.3L395.9,625.3c1.1-10.9,2.3-18.6,2.3-18.6l61,14.9l51.9,11.7c19.2,4.3,42.4,9.5,62.7,14
				c22.9,5.2,38.1,22.6,33.2,45.5l-5.7,27.8c-32.1-0.6-183.1-14.9-195.9-21.5C391,692.1,386.4,666,395.9,625.3z"/><path fill="#27265f" d="M305.1,625.3L305.1,625.3c1.1-10.9,6.3-22.3,6.3-22.3l57,18.6l51.9,11.7c19.2,4.3,42.4,9.5,62.7,14
				c22.9,5.2,38.1,22.6,33.2,45.5l-5.7,27.8c-32.1-0.6-166.2-5.2-195.9-21.5C300.2,691.5,295.3,666,305.1,625.3z"/><path fill="#e5918f" d="M475.5,537.9c0,0-27.2-12.3-34.7,0c-4,6.6-1.1,19.2,8,24.3c9.2,5.2,61.3,27.2,110.9,39.5c0,0,2-6.9,5.4-14
					c0,0-22.1-9.2-44.1-24.6C499.3,548,475.5,537.9,475.5,537.9L475.5,537.9z"/><path fill="#fbbd9d" d="M468.9,453.1l23.2,92.8c0,0-2.3,23.5-26.1,12c-23.8-11.5-39.2-85.4-39.2-85.4L468.9,453.1z"/><path fill="#f8d4e3" d="M429.7,505c2.9-0.6,5.7-1.4,8.3-2.3s5.2-1.7,7.7-2.6c22.1-7.4,34.1-16.6,34.1-16.6
				c-6.9-30.1-15.2-50.4-22.6-63.6c-0.3-0.3-0.3-0.6-0.6-0.9c-0.3-0.3-0.3-0.6-0.6-0.9c-4-6.6-9.7-12.3-16-16.9
				c-0.6-0.6-1.1-0.9-2-1.4l-2.9,48.4l-0.6,4.9L429.7,505z"/><path fill="#e88ebb" d="M292.5,421.3c0.6,14.3,3.2,37.2,5.2,60.4c0.6,7.4,1.4,14.6,2,21.8c0.3,4.3,7.2,28.1,7.4,32.4
				c1.1,20.3,11.2,35.2,1.7,66.2c-2.3,7.4-2.9,11.2-2.9,14.3c0,2,2.9,4.3,3.7,4.9c4,2.3,11.7,3.7,20.9,5.2l0,0
				c18.3,2.3,43.3,2.6,58.4,2.6c20.1,0,50.4-3.2,54.4-8.3c3.4-4.6,0.3-11.5-1.4-20.9c-7.4-42.1-4.9-64.2-4.3-94.5c0-0.9,0-1.4,0-2.3
				c0.9-47,3.7-87.1,1.7-101.7c-0.6-0.6-1.1-0.9-2-1.4c-3.2-2.3-6.3-4-9.5-5.7c-0.3,0-0.6-0.3-0.9-0.6c-0.9-0.6-2-1.1-2.9-1.4
				c-0.3-0.3-0.6-0.3-1.1-0.6c-6.9-3.4-16.9-6.9-22.6-8.9c-0.9-0.3-1.4-0.6-2-0.6c-5.4-0.3-11.2-0.3-17.5-0.3
				c-5.4,0.3-13.8,0.9-22.9,2l0,0c-10.3,1.4-21.5,3.2-30.7,5.7c0,0,0,0-0.3,0c-1.7,0.6-12.6,4.6-24.1,16.9
				C299.9,410.5,295.9,415.3,292.5,421.3z"/><path fill="#142d53" d="M438.3,297.3c0,0-2.6,30.7-12.9,32.9c-10.3,2-7.7-10.9-7.7-10.9l1.4-14.6L438.3,297.3z"/><path fill="#fbbd9d" d="M391.3,408.7c20.1-2.3,12.6-21.8,9.7-26.4c-0.9-0.3-4.3-1.1-4.3-1.4l0,0c-0.6-0.6-1.1-1.4-1.4-2.3
					c-2-5.2-1.1-15.2-0.9-16l0,0v-1.7c-0.3-1.1-0.6-2.3-0.9-3.4l-10.6-8.3l-22.3-17.5c0,0,6,29.2,1.1,47.6c-0.3,1.4-1.1,3.4-2.9,4.3
					l0,0c-0.6,0.3-1.4,0.6-2.3,0.9C350.9,387.2,358.4,412.7,391.3,408.7z"/><path fill="#cb6362" d="M373.5,350.3c0,0,0.3,19.5,21.5,28.4c-2-5.2-1.1-15.2-0.9-16l-8.9-6.9L373.5,350.3z"/><path fill="#fbbd9d" d="M433.4,301.6c0,0-4.6,63.9-21.8,69.3c0,0-22.1,2-37.8-19.2c-4.6-6-10.3-7.4-12-14.9
					c-3.2-12-7.4-34.1-1.7-47.6C367.5,270.7,432.5,255.5,433.4,301.6z"/><path fill="#142d53" d="M359.5,279c0.3-11.5,12-16,12-16c11.7-5.4,36.1-3.2,61,2.6c5.7,1.4,13.2-2.3,17.5,0.6
					c4.9,3.4,0,19.2,0,19.2c-9.7,29.2-45.3,19.8-55.9,16c-2.6,7.4-2.3,18-8.6,23.5c-3.7,3.2-9.7,3.2-16.3,2
					c-0.9,1.4-3.7,2.9-4.3,4.9c-2,6.9-1.7,17.5-1.7,25.8l-3.2-1.4C359.8,353.7,328.6,279.8,359.5,279z"/><path fill="#fbbd9d" d="M375.5,340.3c-12.3,4.6-16-25.5-4.6-26.9c8.9-1.1,9.2,11.2,9.2,11.2S382.4,337.7,375.5,340.3z"/><path fill="#fbbd9d" d="M257.5,550L257.5,550c5.4,6.3,25.8,10.9,35.8,2.3c3.2-2.9,6.6-10,10-18.9c8.6-22.9,16.9-57.6,16.9-57.6
				l-45.8-23.5c0,0-6,26.4-10.9,51.6c0,0,0,0.3,0,0.6c-1.7,8-3.2,16-4.3,22.6c0,0.3,0,0.3,0,0.6C257.8,535.9,256.9,544.2,257.5,550z
				"/><path fill="#f8d4e3" d="M337.4,443.7c-4.3,18.3-18.3,53.3-18.3,53.3c-9.7,1.7-22.9-0.3-33.5-4c-12.6-4.6-21.5-14-21.5-14
				s9.2-25.8,17.5-44.4c7.4-16.6,11.7-22.9,15.2-26.4c4.9-5.2,12.6-10.9,18-13.5L337.4,443.7z"/><path fill="#fbbd9d" d="M257.5,550L257.5,550c0.3,3.4,1.4,5.7,2.9,6.6c0.3,0.3,4,2.3,4.3,2.6c5.7,3.4,15.8,9.2,28.4,14.6
					c30.7,13.2,75.1,28.6,99.1,35.5c0,0,2.3-6.9,6-13.8c0,0-21.8-10-43-26.4c-21.5-16.3-52.1-36.1-52.1-36.1l-7.7-9.2
					c0,0-27.5-25.5-32.1-20.3c0,0,0,0.3,0,0.6c-0.6,2.6-2.9,12.3-4.3,22.6c0,0.3,0,0.3,0,0.6C257.8,535.9,256.9,544.2,257.5,550z"/><path fill="#e5918f" d="M395.3,594.1c0,0,5.4,3.2,10.9,2c3.2-0.6,4.3-2,6.6-2.3c2.3-0.3,8.3-1.1,11.2-2.6c2.9-1.4,4-1.7,4,1.4
					c0,2.9-6,5.4-7.4,6.3c-1.7,0.9-3.4,3.4-3.7,3.7c-0.3,0.3,9.7,5.4,12.3,4.6c0,0,0.9,2.3,0.3,3.7c-0.6,1.4-2.6,1.7-2.6,2.6
					c-0.3,0.6,0.6,2,0,3.2c-0.6,1.1-2.3,1.1-3.2,2.9s0,1.7-0.6,3.4c-0.6,1.7-2.9,2-3.2,3.2c-0.6,0.9-0.3,2-1.1,2.6
					c-0.9,0.6-10-2.3-13.2-3.7s-12-14-21.8-18.3L395.3,594.1z"/><path fill="#658fc9" d="M349.5,650.2h69.6v-6.9h-69.6c-2,0-3.4,1.4-3.4,3.4l0,0C346,648.8,347.5,650.2,349.5,650.2z"/><path fill="#4854a3" d="M393.3,650.2h174.5c2,0,4-1.4,4.6-3.4l35.8-128.3c0.9-2.9-1.4-5.7-4.3-5.7H435.1c-4,0-7.4,2.6-8.3,6.3
				l-35.5,128.1C390.7,648.8,391.9,650.2,393.3,650.2z"/></g></svg>